<svg width="108" height="108" viewBox="0 0 108 108" fill="none" xmlns="http://www.w3.org/2000/svg">
  <rect width="108" height="108" fill="#0066CC"/>
  <circle cx="54" cy="54" r="40" fill="white"/>
  <path d="M54 34C42.9543 34 34 42.9543 34 54C34 65.0457 42.9543 74 54 74C65.0457 74 74 65.0457 74 54C74 42.9543 65.0457 34 54 34ZM54 38C62.8366 38 70 45.1634 70 54C70 62.8366 62.8366 70 54 70C45.1634 70 38 62.8366 38 54C38 45.1634 45.1634 38 54 38Z" fill="#0066CC"/>
  <circle cx="54" cy="54" r="12" fill="#0066CC"/>
  <rect x="78" y="42" width="8" height="24" rx="2" fill="white"/>
</svg>
