<svg width="1024" height="1024" viewBox="0 0 1024 1024" fill="none" xmlns="http://www.w3.org/2000/svg">
  <rect width="1024" height="1024" rx="256" fill="#0066CC"/>
  <circle cx="512" cy="512" r="384" fill="white"/>
  <path d="M512 320C405.869 320 320 405.869 320 512C320 618.131 405.869 704 512 704C618.131 704 704 618.131 704 512C704 405.869 618.131 320 512 320ZM512 368C591.529 368 656 432.471 656 512C656 591.529 591.529 656 512 656C432.471 656 368 591.529 368 512C368 432.471 432.471 368 512 368Z" fill="#0066CC"/>
  <circle cx="512" cy="512" r="128" fill="#0066CC"/>
  <rect x="736" y="400" width="64" height="224" rx="32" fill="white"/>
</svg>
